# xmcd CD database file
#
# Track frame offsets:
#	150
#	24620
#	47337
#	70300
#	90712
#	115692
#	137742
#	159412
#
# Disc length: 2380 seconds
#
# Revision: 0
# Processed by: cddbd v1.5PL3 Copyright (c) Steve Scherf et al.
# Submitted via: CDex 1.51
#
DISCID=60094a08
DTITLE=skirt - SCOPE
DYEAR=1996
DGENRE=Japanese Pop
TTITLE0=MAGICAL:LABYRINTH// (Album Mix)
TTITLE1=BAD NEWS!X
TTITLE2=SKIP! STEP!!
TTITLE3=READY STEADY GO!
TTITLE4=そばにいてほしい
TTITLE5=ハートブレーカー
TTITLE6=HEY! HEY! LAZY GIRL! (Album Mix)
TTITLE7=スカートをはいた果実
EXTD=YEAR: 1996
EXTT0=
EXTT1=
EXTT2=
EXTT3=
EXTT4=
EXTT5=
EXTT6=
EXTT7=
PLAYORDER=
